<svg xmlns="http://www.w3.org/2000/svg" xmlns:xlink="http://www.w3.org/1999/xlink" viewBox="0,0,256,256" width="96px" height="96px"><g transform="translate(-43.52,-43.52) scale(1.34,1.34)"><g fill="none" fill-rule="nonzero" stroke="none" stroke-width="1" stroke-linecap="butt" stroke-linejoin="miter" stroke-miterlimit="10" stroke-dasharray="" stroke-dashoffset="0" font-family="none" font-weight="none" font-size="none" text-anchor="none" style="mix-blend-mode: normal"><g transform="scale(5.33333,5.33333)"><path d="M6,10c0,-2.2 1.8,-4 4,-4h28c2.2,0 4,1.8 4,4v28c0,2.2 -1.8,4 -4,4h-28c-2.2,0 -4,-1.8 -4,-4z" fill="#e1e7ea"></path><path d="M16,17c-3.86599,0 -7,3.13401 -7,7c0,3.86599 3.13401,7 7,7c3.86599,0 7,-3.13401 7,-7c0,-3.86599 -3.13401,-7 -7,-7z" fill="#1565c0"></path><path d="M32,17c-3.86599,0 -7,3.13401 -7,7c0,3.86599 3.13401,7 7,7c3.86599,0 7,-3.13401 7,-7c0,-3.86599 -3.13401,-7 -7,-7z" fill="#ff4081"></path></g></g></g></svg>